<svg xmlns="http://www.w3.org/2000/svg" width="150" viewBox="0 0 112.5 112.5" height="150" version="1.0"><defs><clipPath id="a"><path d="M20.426 4.816h70.937V107.11H20.426Zm0 0"/></clipPath></defs><g clip-path="url(#a)"><path fill="#fff" d="M91.57 107.11 56 79.48l-35.57 27.63V4.886h71.14v102.222"/></g><path fill="#4464ad" d="m56 74.04 31.27 24.288V9.188H24.727v89.14Zm32.703 27.214L56 75.852l-32.703 25.402v-93.5h65.406v93.5"/><g fill="#4464ad"><path d="m45.336 19.235 2.188 6.172 2.172-6.172h2.297v8.5h-1.766v-2.328l.187-4-2.296 6.328h-1.204l-2.296-6.328.187 4v2.328h-1.75v-8.5ZM53.145 24.516c0-.625.117-1.18.36-1.672a2.679 2.679 0 0 1 1.03-1.14c.458-.27.99-.407 1.595-.407.843 0 1.535.262 2.078.782.539.523.843 1.23.906 2.125l.016.437c0 .969-.274 1.746-.813 2.328-.543.586-1.273.875-2.187.875-.907 0-1.633-.289-2.172-.875-.543-.582-.813-1.375-.813-2.375Zm1.688.125c0 .606.11 1.063.328 1.375.226.313.55.469.969.469.406 0 .722-.156.953-.469.238-.312.36-.812.36-1.5 0-.582-.122-1.035-.36-1.36a1.112 1.112 0 0 0-.953-.484c-.418 0-.743.164-.97.485-.218.312-.327.808-.327 1.484ZM63.572 25.985c0-.196-.105-.352-.312-.469-.2-.125-.524-.234-.969-.328-1.5-.313-2.25-.953-2.25-1.922 0-.562.227-1.031.687-1.406.47-.375 1.079-.563 1.829-.563.8 0 1.441.196 1.921.578.477.375.72.868.72 1.47H63.51a.807.807 0 0 0-.235-.595c-.156-.164-.398-.25-.718-.25-.293 0-.516.07-.672.204a.596.596 0 0 0-.235.484c0 .187.086.34.266.453.176.117.473.215.89.297.426.086.786.18 1.079.281.883.336 1.328.903 1.328 1.703 0 .575-.25 1.04-.75 1.39-.492.356-1.125.532-1.906.532-.524 0-.993-.094-1.407-.281a2.442 2.442 0 0 1-.968-.766 1.83 1.83 0 0 1-.344-1.062h1.594c.02.293.129.523.328.687.207.157.488.235.843.235.32 0 .563-.063.72-.188a.584.584 0 0 0 .25-.484ZM68.324 19.86v1.562h1.078v1.235h-1.078v3.156c0 .23.04.398.125.5.094.105.266.156.516.156.187 0 .351-.015.5-.047v1.282c-.336.093-.672.14-1.016.14-1.187 0-1.793-.594-1.812-1.781v-3.406h-.922v-1.235h.922V19.86Zm0 0"/></g><path d="M37.653 41.162v3h-1.75v-8.5h3.313c.633 0 1.191.12 1.672.36.488.23.863.562 1.125 1 .257.429.39.913.39 1.452 0 .836-.289 1.492-.86 1.969-.562.48-1.35.719-2.359.719Zm0-1.406h1.563c.457 0 .804-.11 1.047-.329.25-.218.375-.53.375-.937 0-.414-.125-.75-.375-1-.243-.258-.579-.395-1.016-.406h-1.594Zm0 0" fill="#4464ad"/><g fill="#4464ad"><path d="M43.158 40.943c0-.625.118-1.18.36-1.672a2.679 2.679 0 0 1 1.031-1.14c.457-.27.988-.407 1.594-.407.843 0 1.535.262 2.078.782.539.523.844 1.23.906 2.125l.016.437c0 .969-.274 1.746-.813 2.328-.543.586-1.273.875-2.187.875-.907 0-1.633-.289-2.172-.875-.543-.582-.813-1.375-.813-2.375Zm1.688.125c0 .606.11 1.063.328 1.375.227.313.55.469.969.469.406 0 .722-.156.953-.469.238-.312.36-.812.36-1.5 0-.582-.122-1.035-.36-1.36a1.112 1.112 0 0 0-.953-.484c-.418 0-.742.164-.969.485-.219.312-.328.808-.328 1.484ZM55.851 41.068c0 .969-.227 1.746-.672 2.328-.437.586-1.031.875-1.781.875-.637 0-1.152-.219-1.547-.656v2.969h-1.688v-8.735h1.579l.046.61c.415-.489.954-.735 1.61-.735.77 0 1.367.293 1.797.875.437.575.656 1.367.656 2.375Zm-1.688-.125c0-.594-.105-1.047-.312-1.36a1.023 1.023 0 0 0-.906-.484c-.532 0-.899.203-1.094.61v2.578c.207.418.578.625 1.11.625.8 0 1.202-.656 1.202-1.969ZM60.686 43.521c-.418.5-.996.75-1.734.75-.68 0-1.195-.191-1.547-.578-.355-.383-.539-.953-.547-1.703v-4.14h1.688v4.077c0 .657.297.985.89.985.57 0 .97-.196 1.188-.594v-4.469h1.687v6.313h-1.578ZM65.356 44.162h-1.688v-8.969h1.688ZM70.414 44.162a1.642 1.642 0 0 1-.172-.563c-.406.45-.937.672-1.594.672-.625 0-1.14-.176-1.546-.531-.407-.352-.61-.805-.61-1.36 0-.664.25-1.175.75-1.53.5-.364 1.219-.548 2.156-.548h.766v-.359c0-.289-.074-.523-.219-.703-.148-.176-.383-.266-.703-.266-.293 0-.523.07-.687.203-.157.137-.235.325-.235.563h-1.687c0-.363.113-.703.344-1.016.226-.312.546-.554.953-.734a3.53 3.53 0 0 1 1.39-.266c.782 0 1.399.2 1.86.594.457.387.687.934.687 1.64v2.75c0 .594.082 1.048.25 1.36v.094Zm-1.406-1.172c.25 0 .476-.05.687-.156.219-.114.375-.266.469-.453v-1.094h-.625c-.844 0-1.293.293-1.344.875l-.015.11c0 .21.07.382.218.515.157.137.36.203.61.203ZM76.71 39.427a4.6 4.6 0 0 0-.61-.046c-.648 0-1.07.218-1.265.656v4.125h-1.688v-6.313h1.594l.047.75c.344-.582.812-.875 1.406-.875.188 0 .363.028.531.078Zm0 0"/></g></svg>